<svg width="195" height="396" viewBox="0 0 195 396" fill="none" xmlns="http://www.w3.org/2000/svg">
<path d="M20.337 383.912C-13.316 351.824 16.1682 242.624 35.117 192.035C39.6647 137.399 55.9606 126.269 63.5401 127.534C73.204 124.282 90.0684 164.03 89.121 177.4C93.1002 175.774 98.2164 175.774 102.196 177.4C103.56 138.375 117.923 125.727 124.934 124.282C146.308 129.485 153.547 167.283 154.494 185.531C199.971 309.98 189.739 367.832 178.938 381.202C112.542 396.812 45.5388 389.513 20.337 383.912Z" fill="url(#paint0_radial_94_139)" stroke="#787364" stroke-width="10"/>
<path d="M121.523 217.51C121.523 222 127.301 227.809 132.324 227.809C137.347 227.809 141.42 224.168 141.42 219.678C141.42 215.188 135.642 209.38 130.619 209.38C125.596 209.38 121.523 213.02 121.523 217.51Z" fill="#614A37"/>
<path d="M121.523 217.51C121.523 222 127.301 227.809 132.324 227.809C137.347 227.809 141.42 224.168 141.42 219.678C141.42 215.188 135.642 209.38 130.619 209.38C125.596 209.38 121.523 213.02 121.523 217.51Z" fill="#614A37"/>
<path d="M62.4033 218.594C62.4033 223.085 56.6257 228.893 51.6025 228.893C46.5792 228.893 42.5071 225.253 42.5071 220.762C42.5071 216.272 48.2846 210.464 53.3079 210.464C58.3311 210.464 62.4033 214.104 62.4033 218.594Z" fill="#614A37"/>
<path d="M62.4033 218.594C62.4033 223.085 56.6257 228.893 51.6025 228.893C46.5792 228.893 42.5071 225.253 42.5071 220.762C42.5071 216.272 48.2846 210.464 53.3079 210.464C58.3311 210.464 62.4033 214.104 62.4033 218.594Z" fill="#614A37"/>
<path d="M175.929 69.97C204.297 145.991 181.312 245.841 165.891 282.425L170.256 288.97C206.217 196.738 193.532 105.547 181.603 69.97H175.929Z" fill="#414706"/>
<path d="M187.032 80.9311C177.539 83.4403 170.536 80.4639 167.254 76.0022C165.276 73.3137 157.102 72.1906 153.409 71.5214C148.465 70.6252 148.313 60.3194 140.059 63.456C124.731 69.2809 104.459 56.2867 100.503 52.254C98.5875 50.3012 90.614 47.1214 87.6473 49.5655C71.3304 63.0079 55.149 48.6223 51.058 45.5328C48.0912 43.2924 41.1689 43.5911 39.1911 45.0847C13.9742 61.2156 10.0186 47.3251 11.5019 47.3251C28.573 47.3251 28.2473 39.2597 36.2244 29.402C42.0725 22.1753 45.619 22.2327 48.5857 21.3365C50.5635 19.9923 58.8357 20.4404 61.4415 18.2C80.725 1.62106 89.6251 3.41337 92.5918 6.10185C101.294 12.5542 102.646 10.2839 104.459 9.23843C119.787 0.399148 128.192 3.20669 130.17 4.30957C136.598 7.89413 139.565 13.7193 142.037 13.2712C164.287 9.68655 174.176 19.7041 174.176 27.1616C174.176 29.402 173.682 31.4491 177.143 32.9866C197.316 41.9482 193.954 47.3252 194.449 53.1502C194.449 56.2867 191.482 56.2867 194.943 60.3194C199.8 65.9785 201.536 70.7746 200.876 73.3137C212.343 80.7358 206.287 89.224 198.404 88.9965C194.449 82.7234 187.422 80.8279 187.032 80.9311Z" fill="#999F60" stroke="#5A6113" stroke-width="6"/>
<path d="M75.2857 34.5709C138.176 15.9989 167.903 54.4696 179.773 81.001L184.23 79.6744C160.026 24.1583 108.464 20.863 77.7617 32.36C77.7617 32.36 74.7905 33.2444 75.2857 34.5709Z" fill="#5A6113"/>
<defs>
<radialGradient id="paint0_radial_94_139" cx="0" cy="0" r="1" gradientTransform="matrix(185.319 155.019 -106.621 115.881 119.818 216.426)" gradientUnits="userSpaceOnUse">
<stop offset="0.629808" stop-color="#D4D0C3"/>
<stop offset="1" stop-color="#918E85"/>
</radialGradient>
</defs>
</svg>
